<svg width="160" height="36" viewBox="0 0 160 36" xmlns="http://www.w3.org/2000/svg" role="img" aria-label="Mycredimedia">
  <title>Mycredimedia</title>
  <desc>Logotipo de Mycredimedia con marca en naranja</desc>
  <defs>
    <linearGradient id="g" x1="0" y1="0" x2="1" y2="1">
      <stop offset="0" stop-color="#F9AA02"/>
      <stop offset="1" stop-color="#d29203"/>
    </linearGradient>
  </defs>
  <g fill="none" fill-rule="evenodd">
    <!-- Marca: caja con M -->
    <rect x="0" y="0" width="36" height="36" rx="8" fill="#F9AA02"/>
    <path d="M8 26V10h4.5l5 7.6 5-7.6H27v16h-3.8v-9.6l-5.2 7.6-5.2-7.6V26H8Z" fill="#fff"/>

    <!-- Texto: Mycredimedia -->
    <path d="M44 24v-12h3.2l3.1 6.7 3.1-6.7h3.2v12h-2.8V16.9l-2.8 6.1h-2.2l-2.8-6.1V24H44Zm20.4.2c-3.1 0-5.2-2.3-5.2-5.3 0-3 2.1-5.3 5.2-5.3s5.2 2.3 5.2 5.3c0 3-2.1 5.3-5.2 5.3Zm0-2.4c1.6 0 2.6-1.3 2.6-2.9 0-1.6-1-2.9-2.6-2.9s-2.6 1.3-2.6 2.9c0 1.6 1 2.9 2.6 2.9ZM72 24v-12h2.8v12H72Zm4.8 0v-12h2.8v4.4h3.7v2.4h-3.7V24H76.8Zm12.9.2c-3.1 0-5.2-2.3-5.2-5.3 0-3 2.1-5.3 5.2-5.3s5.2 2.3 5.2 5.3c0 3-2.1 5.3-5.2 5.3Zm0-2.4c1.6 0 2.6-1.3 2.6-2.9 0-1.6-1-2.9-2.6-2.9s-2.6 1.3-2.6 2.9c0 1.6 1 2.9 2.6 2.9ZM98.2 24l4.6-12h3l4.6 12h-3l-.7-2h-4.6l-.7 2h-3.2Zm4.6-4.2h3l-1.5-4.2-1.5 4.2ZM115.8 24v-12h2.8v9.6h5.4V24h-8.2Zm9.6 0v-12h2.8v12h-2.8Zm4.8 0v-12h2.8v4.4h3.7v2.4h-3.7V24h-2.8Zm10.2.2c-2.8 0-4.6-1.5-4.6-3.6h2.8c0 .9.8 1.4 1.8 1.4 1.1 0 1.8-.6 1.8-1.4 0-.9-.7-1.3-2.1-1.6-2.4-.5-4.2-1.4-4.2-3.6 0-2.1 1.9-3.6 4.5-3.6 2.8 0 4.6 1.5 4.6 3.6h-2.7c0-.9-.7-1.4-1.8-1.4-1.1 0-1.7.6-1.7 1.4 0 .8.7 1.2 2 1.5 2.4.5 4.3 1.5 4.3 3.7 0 2.2-2 3.6-4.7 3.6Z" fill="#111"/>
  </g>
</svg>